<?xml version="1.0" encoding="iso-8859-1"?>
<!-- Generator: Adobe Illustrator 16.0.0, SVG Export Plug-In . SVG Version: 6.00 Build 0)  -->
<!DOCTYPE svg PUBLIC "-//W3C//DTD SVG 1.1//EN" "http://www.w3.org/Graphics/SVG/1.1/DTD/svg11.dtd">
<svg version="1.1" id="Capa_1" xmlns="http://www.w3.org/2000/svg" xmlns:xlink="http://www.w3.org/1999/xlink" x="0px" y="0px"
	 width="29.989px" height="29.99px" viewBox="0 0 29.989 29.99" style="enable-background:new 0 0 29.989 29.99;"
	 xml:space="preserve">
<g>
	<g>
		<path d="M19.665,7.333c-2.637,0-4.869,1.73-5.639,4.113c-0.301,0.128-0.595,0.273-0.876,0.453
			c-0.993-0.95-2.296-1.482-3.675-1.482c-2.291,0-4.337,1.496-5.069,3.632C1.892,14.505,0,16.71,0,19.304
			c0,2.957,2.405,5.361,5.363,5.361c0.4,0,0.811-0.053,1.225-0.154c1.014,1.109,2.452,1.759,3.955,1.759
			c0.838,0,1.657-0.196,2.404-0.573c0.934,0.719,2.068,1.107,3.256,1.107c1.85,0,3.574-0.98,4.546-2.544
			c2.54,0.133,4.661-1.901,4.661-4.421c0-1.115-0.42-2.127-1.105-2.904c0.805-1.011,1.291-2.282,1.291-3.671
			C25.596,9.993,22.936,7.333,19.665,7.333z M19.665,8.978c2.363,0,4.285,1.922,4.285,4.285c0,1.012-0.36,1.932-0.953,2.661
			c-0.308-0.156-0.627-0.289-0.972-0.372c-0.618-2.646-2.986-4.573-5.741-4.573c-0.074,0-0.146,0.013-0.22,0.016
			C16.819,9.791,18.141,8.978,19.665,8.978z M20.982,22.621c-0.168,0-0.342-0.019-0.531-0.056l-0.626-0.118l-0.272,0.574
			c-0.625,1.318-1.908,2.137-3.35,2.137c-0.968,0-1.887-0.375-2.588-1.057l-0.475-0.462l-0.552,0.366
			c-0.613,0.404-1.32,0.617-2.046,0.617c-1.193,0-2.287-0.562-3.001-1.543l-0.362-0.498l-0.58,0.209
			c-0.434,0.154-0.838,0.229-1.236,0.229c-2.05,0-3.718-1.667-3.718-3.717c0-1.932,1.521-3.553,3.461-3.688l0.613-0.043l0.133-0.601
			c0.374-1.687,1.898-2.911,3.623-2.911c1.135,0,2.197,0.526,2.915,1.443l0.523,0.667l0.651-0.542
			c0.788-0.658,1.729-1.006,2.719-1.006c2.136,0,3.949,1.61,4.218,3.745l0.083,0.654l0.656,0.062
			c1.438,0.137,2.523,1.32,2.523,2.752C23.766,21.373,22.516,22.621,20.982,22.621z"/>
		<path d="M29.702,13.222h-1.819c-0.16,0-0.287,0.129-0.287,0.287c0,0.159,0.127,0.286,0.287,0.286h1.819
			c0.159,0,0.287-0.127,0.287-0.286C29.989,13.35,29.861,13.222,29.702,13.222z"/>
		<path d="M26.781,9.686c0.049,0,0.098-0.013,0.143-0.038l1.577-0.909c0.138-0.081,0.185-0.255,0.104-0.393
			c-0.077-0.137-0.252-0.184-0.391-0.105L26.637,9.15c-0.138,0.08-0.185,0.256-0.104,0.392C26.585,9.635,26.682,9.686,26.781,9.686z
			"/>
		<path d="M23.629,6.64c0.045,0.026,0.096,0.04,0.145,0.04c0.099,0,0.195-0.052,0.248-0.144l0.912-1.576
			c0.08-0.138,0.031-0.313-0.104-0.393c-0.138-0.079-0.313-0.031-0.392,0.104l-0.912,1.576C23.444,6.386,23.492,6.56,23.629,6.64z"
			/>
		<path d="M19.664,5.579L19.664,5.579c0.159,0,0.287-0.129,0.287-0.286l0.002-1.821c0-0.158-0.128-0.287-0.287-0.287
			c-0.158,0-0.286,0.128-0.286,0.287l-0.003,1.821C19.377,5.449,19.506,5.579,19.664,5.579z"/>
		<path d="M15.309,6.537c0.053,0.092,0.149,0.144,0.248,0.144c0.047,0,0.098-0.012,0.144-0.037c0.137-0.081,0.187-0.255,0.104-0.393
			l-0.91-1.579c-0.078-0.136-0.255-0.185-0.391-0.104c-0.137,0.079-0.185,0.255-0.105,0.393L15.309,6.537z"/>
		<path d="M10.83,8.739l1.577,0.91c0.045,0.026,0.094,0.039,0.143,0.039c0.099,0,0.195-0.052,0.249-0.144
			c0.079-0.137,0.032-0.313-0.105-0.392l-1.577-0.911c-0.137-0.08-0.312-0.033-0.392,0.104C10.645,8.484,10.692,8.658,10.83,8.739z"
			/>
		<path d="M28.501,18.281l-1.577-0.91c-0.138-0.08-0.313-0.033-0.392,0.104c-0.079,0.138-0.032,0.313,0.104,0.392l1.576,0.91
			c0.047,0.026,0.096,0.038,0.145,0.038c0.1,0,0.195-0.051,0.248-0.144C28.686,18.535,28.639,18.361,28.501,18.281z"/>
	</g>
</g>
<g>
</g>
<g>
</g>
<g>
</g>
<g>
</g>
<g>
</g>
<g>
</g>
<g>
</g>
<g>
</g>
<g>
</g>
<g>
</g>
<g>
</g>
<g>
</g>
<g>
</g>
<g>
</g>
<g>
</g>
</svg>
